The Pact 2012 HDRiP AC3-5 1 XviD-AXED

IMDB: 
http://www.imdb.com/title/tt2040560/

PLOT INFO:
As a woman struggles to come to grips with her past in the wake of her mothers death, an unsettling presence emerges in her childhood home.


MEDIAINFO:
General
Complete name : The.Pact.2012.HDRiP.AC3-5.1.XviD-AXED.avi
Format : AVI
Format/Info : Audio Video Interleave
File size : 1.33 GiB
Duration : 1h 29mn
Overall bit rate : 2 137 Kbps

Video
ID : 0
Format : MPEG-4 Visual
Format profile : Advanced Simple@L5
Format settings, BVOP : 2
Format settings, QPel : No
Format settings, GMC : No warppoints
Format settings, Matrix : Default (H.263)
Muxing mode : Packed bitstream
Codec ID : XVID
Codec ID/Hint : XviD
Duration : 1h 29mn
Bit rate : 1 745 Kbps
Width : 720 pixels
Height : 384 pixels
Display aspect ratio : 1.875
Frame rate : 23.976 fps
Color space : YUV
Chroma subsampling : 4:2:0
Bit depth : 8 bits
Scan type : Progressive
Compression mode : Lossy
Bits/(Pixel*Frame) : 0.263
Stream size : 1.09 GiB (82%)
Writing library : XviD 1.1.2 (UTC 2006-11-01)

Audio
ID : 1
Format : AC-3
Format/Info : Audio Coding 3
Mode extension : CM (complete main)
Codec ID : 2000
Duration : 1h 29mn
Bit rate mode : Constant
Bit rate : 384 Kbps
Channel(s) : 6 channels
Channel positions : Front: L C R, Side: L R, LFE
Sampling rate : 48.0 KHz
Bit depth : 16 bits
Compression mode : Lossy
Stream size : 245 MiB (18%)
Alignment : Aligned on interleaves
Interleave, duration : 64 ms (1.53 video frames)
Interleave, preload duration : 192 ms
Title : thepact


SOURCE:
720p wmv Digital VOD Rental


NOTES:
Heres the new horror film from IFC that hits theatres on June 8!


Poster:

 
http://i.imgur.com/8T70n.jpg


Screens:

 
http://i.imgur.com/72gYI.png

 
http://i.imgur.com/EkyoX.png

 
http://i.imgur.com/nZ1lC.png


ENJOY!